<svg width="11" height="11" viewBox="0 0 11 11" fill="none" xmlns="http://www.w3.org/2000/svg">
<path d="M10.3923 4.52159L7.4571 7.45672C6.64637 8.26757 5.33283 8.26757 4.52203 7.45672L3.54369 6.47827L4.52203 5.50005L5.50043 6.47827C5.77068 6.74799 6.20916 6.74854 6.47888 6.47827L9.41391 3.54326C9.6835 3.27333 9.6835 2.83448 9.41391 2.56449L8.43558 1.58615C8.16586 1.31661 7.72685 1.31661 7.4571 1.58615L6.40925 2.63419C5.92347 2.34829 5.37137 2.22568 4.82476 2.26251L6.47888 0.607813C7.28962 -0.202604 8.60379 -0.202604 9.41391 0.607813L10.3924 1.58615C11.2031 2.39661 11.2031 3.71118 10.3923 4.52159ZM4.591 8.36627L3.54371 9.41348C3.27347 9.68375 2.83498 9.68309 2.56538 9.41348L1.58697 8.43515C1.31673 8.16545 1.31673 7.72694 1.58697 7.4567L4.52205 4.52157C4.7917 4.25203 5.23089 4.25203 5.50045 4.52157L6.4789 5.50002L7.45713 4.52157L6.4789 3.54323C5.66805 2.73282 4.35452 2.73282 3.54374 3.54323L0.608592 6.47827C-0.202213 7.28923 -0.202213 8.60341 0.608592 9.41348L1.58697 10.3918C2.39714 11.2027 3.71129 11.2027 4.52205 10.3918L6.17606 8.73777C5.6295 8.7742 5.07883 8.65144 4.591 8.36627Z" fill="#919191"/>
</svg>