<svg width="138" height="25" viewBox="0 0 138 25" fill="none" xmlns="http://www.w3.org/2000/svg">
<path fill-rule="evenodd" clip-rule="evenodd" d="M15.3947 9.86649L5.83333 12.0481C5.48571 12.1275 5.08595 12.3977 4.88293 12.6908L4.43415 13.3385C4.27927 13.562 4.24549 13.8188 4.34124 14.0429C4.43725 14.267 4.64613 14.4201 4.91476 14.4626L19.7438 16.8118C19.7941 16.8198 19.8434 16.8238 19.8904 16.8238C20.1398 16.8238 20.3422 16.711 20.4452 16.5144C20.4962 16.417 20.5905 16.1548 20.363 15.8265L16.5423 10.3119C16.3447 10.0266 15.9803 9.84229 15.6143 9.84229C15.5388 9.84229 15.465 9.85044 15.3947 9.86649ZM16.7867 14.2666L15.2231 12.0096L10.0259 13.1955L16.7867 14.2666Z" fill="black"/>
<path fill-rule="evenodd" clip-rule="evenodd" d="M15.3947 9.86649L5.83333 12.0481C5.48571 12.1275 5.08595 12.3977 4.88293 12.6908L4.43415 13.3385C4.27927 13.562 4.24549 13.8188 4.34124 14.0429C4.43725 14.267 4.64613 14.4201 4.91476 14.4626L19.7438 16.8118C19.7941 16.8198 19.8434 16.8238 19.8904 16.8238C20.1398 16.8238 20.3422 16.711 20.4452 16.5144C20.4962 16.417 20.5905 16.1548 20.363 15.8265L16.5423 10.3119C16.3447 10.0266 15.9803 9.84229 15.6143 9.84229C15.5388 9.84229 15.465 9.85044 15.3947 9.86649ZM16.7867 14.2666L15.2231 12.0096L10.0259 13.1955L16.7867 14.2666Z" fill="url(#paint0_linear)"/>
<path fill-rule="evenodd" clip-rule="evenodd" d="M6.82762 9.0872C6.77024 9.10028 6.70676 9.1123 6.63988 9.12316C6.63937 9.12324 6.63887 9.12333 6.63836 9.12341C6.37413 9.1662 6.05723 9.19084 5.85381 9.19084H5.82899C5.53873 9.19084 5.3084 9.06468 5.19696 8.84473C5.08587 8.62539 5.12 8.36642 5.29049 8.13388L10.9174 0.469253C11.0705 0.260644 11.2964 0.140869 11.537 0.140869C11.7777 0.140869 12.0035 0.260644 12.1566 0.46943L16.1499 5.91339C16.3086 6.12962 16.351 6.38415 16.2662 6.61173C16.1814 6.83932 15.9828 7.00413 15.7213 7.06379L6.82762 9.0872ZM9.05107 6.47767L11.5365 3.09217L13.3093 5.50888L9.05107 6.47767ZM14.496 7.12664C14.496 7.12672 14.4959 7.12657 14.496 7.12664V7.12664Z" fill="black"/>
<path fill-rule="evenodd" clip-rule="evenodd" d="M6.82762 9.0872C6.77024 9.10028 6.70676 9.1123 6.63988 9.12316C6.63937 9.12324 6.63887 9.12333 6.63836 9.12341C6.37413 9.1662 6.05723 9.19084 5.85381 9.19084H5.82899C5.53873 9.19084 5.3084 9.06468 5.19696 8.84473C5.08587 8.62539 5.12 8.36642 5.29049 8.13388L10.9174 0.469253C11.0705 0.260644 11.2964 0.140869 11.537 0.140869C11.7777 0.140869 12.0035 0.260644 12.1566 0.46943L16.1499 5.91339C16.3086 6.12962 16.351 6.38415 16.2662 6.61173C16.1814 6.83932 15.9828 7.00413 15.7213 7.06379L6.82762 9.0872ZM9.05107 6.47767L11.5365 3.09217L13.3093 5.50888L9.05107 6.47767ZM14.496 7.12664C14.496 7.12672 14.4959 7.12657 14.496 7.12664V7.12664Z" fill="url(#paint1_linear)"/>
<path fill-rule="evenodd" clip-rule="evenodd" d="M0.139043 23.6309C-0.0193862 23.8665 -0.043944 24.1385 0.0731713 24.3585C0.189045 24.576 0.424429 24.7058 0.70281 24.7058H22.3708C22.6493 24.7058 22.8847 24.576 23.0006 24.3585C23.1176 24.1384 23.0929 23.8663 22.9348 23.6312L20.7913 20.4353C20.5851 20.1288 20.1751 19.8606 19.8165 19.7975L5.23919 17.228C5.18396 17.2183 5.12651 17.2134 5.06835 17.2134C4.69457 17.2134 4.30971 17.4122 4.11024 17.7087L0.139043 23.6309ZM3.26345 22.6546H19.8099L19.2201 21.7752L5.47745 19.3529L3.26345 22.6546Z" fill="black"/>
<path fill-rule="evenodd" clip-rule="evenodd" d="M0.139043 23.6309C-0.0193862 23.8665 -0.043944 24.1385 0.0731713 24.3585C0.189045 24.576 0.424429 24.7058 0.70281 24.7058H22.3708C22.6493 24.7058 22.8847 24.576 23.0006 24.3585C23.1176 24.1384 23.0929 23.8663 22.9348 23.6312L20.7913 20.4353C20.5851 20.1288 20.1751 19.8606 19.8165 19.7975L5.23919 17.228C5.18396 17.2183 5.12651 17.2134 5.06835 17.2134C4.69457 17.2134 4.30971 17.4122 4.11024 17.7087L0.139043 23.6309ZM3.26345 22.6546H19.8099L19.2201 21.7752L5.47745 19.3529L3.26345 22.6546Z" fill="url(#paint2_linear)"/>
<path d="M44.9033 2.73073L43.8071 3.76918C43.0187 2.99355 42.1533 2.40702 41.211 2.00959C40.2751 1.60575 39.3617 1.40383 38.4707 1.40383C37.3617 1.40383 36.304 1.67626 35.2976 2.22112C34.2976 2.76599 33.522 3.50636 32.9707 4.44224C32.4195 5.37172 32.1438 6.35568 32.1438 7.39412C32.1438 8.45821 32.4291 9.47102 32.9996 10.4325C33.5701 11.3877 34.3585 12.1408 35.3649 12.6921C36.3713 13.237 37.4739 13.5094 38.6726 13.5094C40.1277 13.5094 41.3584 13.0992 42.3648 12.2787C43.3712 11.4582 43.9674 10.3941 44.1533 9.08641H39.6437V7.72104H45.7398C45.727 9.90691 45.0763 11.6441 43.7879 12.9325C42.5059 14.2145 40.7879 14.8556 38.6341 14.8556C36.0188 14.8556 33.9483 13.9645 32.4227 12.1825C31.2496 10.8107 30.6631 9.22422 30.6631 7.42297C30.6631 6.08324 30.9996 4.83647 31.6727 3.68264C32.3458 2.52881 33.2688 1.62818 34.4419 0.980755C35.6149 0.326918 36.9418 0 38.4226 0C39.6213 0 40.7495 0.217946 41.8072 0.653837C42.8648 1.08332 43.8969 1.77562 44.9033 2.73073Z" fill="white"/>
<path d="M49.4263 0.355764H57.5319V1.74997H50.8397V6.17299H57.4742V7.55758H50.8397V13.1056H57.4742V14.4998H49.4263V0.355764Z" fill="white"/>
<path d="M60.9684 0.355764H69.0741V1.74997H62.3819V6.17299H69.0164V7.55758H62.3819V13.1056H69.0164V14.4998H60.9684V0.355764Z" fill="white"/>
<path d="M72.5009 0.355764H73.9432V5.66338L79.5874 0.355764H81.5008L74.7028 6.70183L82.0296 14.4998H80.1547L73.9432 7.90373V14.4998H72.5009V0.355764Z" fill="white"/>
<path d="M85.0046 0.355764H87.8603C89.4052 0.355764 90.5173 0.499993 91.1968 0.78845C91.8827 1.0705 92.4212 1.53203 92.8122 2.17305C93.2096 2.80765 93.4083 3.57046 93.4083 4.46147C93.4083 5.44864 93.1487 6.26914 92.6295 6.92298C92.1167 7.57681 91.418 8.03193 90.5334 8.28834C90.0141 8.43577 89.0686 8.50949 87.6969 8.50949V14.4998H85.0046V0.355764ZM87.6969 5.88453H88.5526C89.2257 5.88453 89.6936 5.83645 89.9565 5.7403C90.2193 5.64415 90.4244 5.4871 90.5718 5.26915C90.7257 5.0448 90.8026 4.77557 90.8026 4.46147C90.8026 3.91661 90.5911 3.51918 90.168 3.26918C89.8603 3.08329 89.2898 2.99034 88.4565 2.99034H87.6969V5.88453Z" fill="white"/>
<path d="M96.8448 0.355764H99.5179V14.4998H96.8448V0.355764Z" fill="white"/>
<path d="M103.55 0.355764H106.127L112.195 9.66332V0.355764H114.887V14.4998H112.3L106.243 5.22108V14.4998H103.55V0.355764Z" fill="white"/>
<path d="M119.112 0.355764H126.833V2.99034H121.785V5.548H126.833V8.1345H121.785V11.8556H126.833V14.4998H119.112V0.355764Z" fill="white"/>
<path d="M137.75 2.27881L135.76 4.0384C135.061 3.06406 134.349 2.57689 133.625 2.57689C133.272 2.57689 132.984 2.67304 132.76 2.86534C132.535 3.05124 132.423 3.26277 132.423 3.49995C132.423 3.73712 132.503 3.96148 132.664 4.17302C132.881 4.45506 133.539 5.06082 134.635 5.9903C135.66 6.84926 136.282 7.39092 136.5 7.61527C137.045 8.16655 137.429 8.69539 137.654 9.20179C137.885 9.70178 138 10.2499 138 10.846C138 12.0062 137.599 12.9646 136.798 13.721C135.997 14.4774 134.952 14.8556 133.664 14.8556C132.657 14.8556 131.779 14.6088 131.029 14.1152C130.285 13.6216 129.648 12.846 129.115 11.7883L131.375 10.4229C132.055 11.6729 132.837 12.2979 133.721 12.2979C134.183 12.2979 134.571 12.1633 134.885 11.8941C135.199 11.6248 135.356 11.3139 135.356 10.9614C135.356 10.6409 135.237 10.3204 135 9.99985C134.763 9.67935 134.24 9.18897 133.433 8.52872C131.894 7.27233 130.901 6.3044 130.452 5.62492C130.003 4.93903 129.779 4.25635 129.779 3.57687C129.779 2.59612 130.151 1.75638 130.894 1.05768C131.644 0.352559 132.567 0 133.664 0C134.369 0 135.038 0.163459 135.673 0.490377C136.314 0.817296 137.006 1.41344 137.75 2.27881Z" fill="white"/>
<path d="M30.9916 18.8627H31.5805V24.756H30.9916V18.8627Z" fill="white"/>
<path d="M35.2361 24.756V18.8627H35.3643L39.2825 23.3739V18.8627H39.8634V24.756H39.7312L35.8451 20.301V24.756H35.2361Z" fill="white"/>
<path d="M43.6071 24.756V18.8627H43.7353L47.6535 23.3739V18.8627H48.2345V24.756H48.1023L44.2161 20.301V24.756H43.6071Z" fill="white"/>
<path d="M54.7826 18.7145C55.6747 18.7145 56.4212 19.0123 57.0222 19.6079C57.6231 20.2035 57.9236 20.9367 57.9236 21.8074C57.9236 22.6701 57.6231 23.4019 57.0222 24.0029C56.4239 24.6038 55.6934 24.9043 54.8307 24.9043C53.9573 24.9043 53.2201 24.6051 52.6192 24.0069C52.0182 23.4086 51.7177 22.6848 51.7177 21.8354C51.7177 21.2692 51.854 20.7444 52.1264 20.2609C52.4015 19.7775 52.7754 19.3996 53.2482 19.1271C53.7209 18.852 54.2324 18.7145 54.7826 18.7145ZM54.8107 19.2914C54.3753 19.2914 53.9626 19.4049 53.5727 19.6319C53.1827 19.859 52.8783 20.1648 52.6592 20.5494C52.4402 20.934 52.3307 21.3627 52.3307 21.8354C52.3307 22.5352 52.5724 23.1268 53.0559 23.6102C53.542 24.091 54.1269 24.3314 54.8107 24.3314C55.2674 24.3314 55.6894 24.2205 56.0767 23.9988C56.4666 23.7772 56.7698 23.474 56.9861 23.0894C57.2051 22.7048 57.3146 22.2775 57.3146 21.8074C57.3146 21.34 57.2051 20.918 56.9861 20.5414C56.7698 20.1621 56.4639 19.859 56.0686 19.6319C55.6734 19.4049 55.254 19.2914 54.8107 19.2914Z" fill="white"/>
<path d="M60.9542 18.8627H61.5952L63.5463 23.4179L65.5334 18.8627H66.1744L63.6104 24.756H63.4822L60.9542 18.8627Z" fill="white"/>
<path d="M71.8692 18.8627L74.6176 24.756H73.9846L73.0591 22.817H70.5191L69.5976 24.756H68.9406L71.725 18.8627H71.8692ZM71.7971 20.1127L70.7835 22.2481H72.7987L71.7971 20.1127Z" fill="white"/>
<path d="M77.2475 19.4356V18.8627H80.4806V19.4356H79.1665V24.756H78.5656V19.4356H77.2475Z" fill="white"/>
<path d="M83.5392 18.8627H84.1282V24.756H83.5392V18.8627Z" fill="white"/>
<path d="M90.5882 18.7145C91.4803 18.7145 92.2268 19.0123 92.8277 19.6079C93.4287 20.2035 93.7292 20.9367 93.7292 21.8074C93.7292 22.6701 93.4287 23.4019 92.8277 24.0029C92.2294 24.6038 91.499 24.9043 90.6362 24.9043C89.7629 24.9043 89.0257 24.6051 88.4247 24.0069C87.8238 23.4086 87.5233 22.6848 87.5233 21.8354C87.5233 21.2692 87.6595 20.7444 87.932 20.2609C88.2071 19.7775 88.581 19.3996 89.0537 19.1271C89.5265 18.852 90.038 18.7145 90.5882 18.7145ZM90.6162 19.2914C90.1809 19.2914 89.7682 19.4049 89.3783 19.6319C88.9883 19.859 88.6838 20.1648 88.4648 20.5494C88.2458 20.934 88.1363 21.3627 88.1363 21.8354C88.1363 22.5352 88.378 23.1268 88.8614 23.6102C89.3475 24.091 89.9325 24.3314 90.6162 24.3314C91.0729 24.3314 91.4949 24.2205 91.8822 23.9988C92.2722 23.7772 92.5753 23.474 92.7917 23.0894C93.0107 22.7048 93.1202 22.2775 93.1202 21.8074C93.1202 21.34 93.0107 20.918 92.7917 20.5414C92.5753 20.1621 92.2695 19.859 91.8742 19.6319C91.4789 19.4049 91.0596 19.2914 90.6162 19.2914Z" fill="white"/>
<path d="M97.2124 24.756V18.8627H97.3406L101.259 23.3739V18.8627H101.84V24.756H101.708L97.8214 20.301V24.756H97.2124Z" fill="white"/>
<path d="M109.568 19.4356V18.8627H112.801V19.4356H111.487V24.756H110.886V19.4356H109.568Z" fill="white"/>
<path d="M115.947 18.8627H119.325V19.4436H116.536V21.2865H119.301V21.8635H116.536V24.1751H119.301V24.756H115.947V18.8627Z" fill="white"/>
<path d="M125.048 18.8627L127.796 24.756H127.163L126.237 22.817H123.697L122.776 24.756H122.119L124.903 18.8627H125.048ZM124.975 20.1127L123.962 22.2481H125.977L124.975 20.1127Z" fill="white"/>
<path d="M130.742 24.756L131.58 18.8627H131.676L134.072 23.6984L136.443 18.8627H136.54L137.385 24.756H136.804L136.227 20.5414L134.144 24.756H133.996L131.884 20.5093L131.311 24.756H130.742Z" fill="white"/>
<defs>
<linearGradient id="paint0_linear" x1="3.62524" y1="16.7198" x2="10.7622" y2="2.25687" gradientUnits="userSpaceOnUse">
<stop stop-color="#CA40FF"/>
<stop offset="1" stop-color="#40C8FF"/>
</linearGradient>
<linearGradient id="paint1_linear" x1="4.67626" y1="9.056" x2="16.3007" y2="-3.46518" gradientUnits="userSpaceOnUse">
<stop stop-color="#CA40FF"/>
<stop offset="1" stop-color="#40C8FF"/>
</linearGradient>
<linearGradient id="paint2_linear" x1="-0.942361" y1="24.5942" x2="5.36855" y2="7.64281" gradientUnits="userSpaceOnUse">
<stop stop-color="#CA40FF"/>
<stop offset="1" stop-color="#40C8FF"/>
</linearGradient>
</defs>
</svg>
