<svg width="98" height="98" viewBox="0 0 98 98" fill="none" xmlns="http://www.w3.org/2000/svg">
<path d="M56.8938 19.6193C56.6805 19.0091 56.3479 18.4474 55.9154 17.9668C57.7172 15.9645 57.5547 12.8808 55.5524 11.079C55.0718 10.6466 54.5102 10.314 53.8999 10.1006V6.53345H50.6332V9.80011H47.3666V6.53345H44.0999V9.80011H42.4666C41.5646 9.80011 40.8333 10.5314 40.8333 11.4334V24.5001C40.8333 25.4021 41.5646 26.1334 42.4666 26.1334H44.0999V29.4001H47.3666V26.1334H50.6332V29.4001H53.8999V25.8329C56.4426 24.9438 57.783 22.1618 56.8938 19.6193ZM52.2666 22.8668H44.0999V19.6001H52.2666C53.1686 19.6001 53.8999 20.3314 53.8999 21.2334C53.8999 22.1355 53.1686 22.8668 52.2666 22.8668ZM52.2666 16.3334H44.0999V13.0668H52.2666C53.1686 13.0668 53.8999 13.7981 53.8999 14.7001C53.8999 15.6021 53.1686 16.3334 52.2666 16.3334Z" fill="url(#paint0_linear)"/>
<path d="M49.0001 0C39.0823 0.0116375 31.0451 8.04886 31.0334 17.9667C31.0334 27.8894 39.0774 35.9333 49.0001 35.9333C58.9228 35.9333 66.9668 27.8894 66.9668 17.9667C66.9668 8.04396 58.9228 0 49.0001 0ZM49.0001 32.6667C40.8816 32.6667 34.3001 26.0852 34.3001 17.9667C34.3001 9.84798 40.8816 3.26667 49.0001 3.26667C57.1149 3.27565 63.6911 9.85186 63.7001 17.9667C63.7001 26.0852 57.1188 32.6667 49.0001 32.6667Z" fill="url(#paint1_linear)"/>
<path d="M80.0333 24.5C70.1106 24.5 62.0667 32.544 62.0667 42.4667C62.0667 52.3894 70.1106 60.4333 80.0333 60.4333C89.956 60.4333 98 52.3894 98 42.4667C97.9883 32.5489 89.9511 24.5116 80.0333 24.5ZM80.0333 57.1667C71.9148 57.1667 65.3333 50.5852 65.3333 42.4667C65.3333 34.348 71.9148 27.7667 80.0333 27.7667C88.152 27.7667 94.7333 34.348 94.7333 42.4667C94.7243 50.5815 88.1481 57.1577 80.0333 57.1667Z" fill="url(#paint2_linear)"/>
<path d="M89.011 43.7391C88.2219 41.9684 86.4634 40.8293 84.5249 40.8334C84.2074 40.835 83.8907 40.8667 83.5792 40.9281C85.4455 38.9683 85.3697 35.8668 83.4099 34.0005C81.4501 32.1343 78.3486 32.21 76.4823 34.1698C74.6802 36.0622 74.6802 39.0357 76.4823 40.9281C76.1892 40.8691 75.8913 40.8375 75.5922 40.8334C72.8859 40.8287 70.6883 43.0186 70.6836 45.7248C70.6789 48.4311 72.8688 50.6287 75.575 50.6334C77.513 50.6369 79.2706 49.4978 80.0593 47.7277C81.1608 50.1995 84.0575 51.3106 86.5294 50.2091C89.0014 49.1077 90.1123 46.2109 89.011 43.7391ZM75.5922 47.3667C74.6902 47.3667 73.9588 46.6354 73.9588 45.7334C73.9588 44.8314 74.6902 44.1001 75.5922 44.1001C76.4942 44.1001 77.2255 44.8314 77.2255 45.7334C77.2255 46.6354 76.4942 47.3667 75.5922 47.3667ZM80.0593 43.7391C79.8327 43.2371 79.5236 42.7767 79.1447 42.3769C79.4375 42.4343 79.7349 42.4643 80.0332 42.4667C80.3507 42.4651 80.6674 42.4335 80.9789 42.372C80.5969 42.7722 80.286 43.2344 80.0593 43.7391ZM80.0332 39.2001C79.1312 39.2001 78.3999 38.4687 78.3999 37.5667C78.3999 36.6647 79.1312 35.9334 80.0332 35.9334C80.9352 35.9334 81.6665 36.6647 81.6665 37.5667C81.6665 38.4687 80.9352 39.2001 80.0332 39.2001ZM84.5249 47.3667C83.6229 47.3667 82.8915 46.6354 82.8915 45.7334C82.8915 44.8314 83.6229 44.1001 84.5249 44.1001C85.4269 44.1001 86.1582 44.8314 86.1582 45.7334C86.1582 46.6354 85.4269 47.3667 84.5249 47.3667Z" fill="url(#paint3_linear)"/>
<path d="M26.1334 62.0667C16.2107 62.0667 8.16675 70.1106 8.16675 80.0333C8.16675 89.956 16.2107 98 26.1334 98C36.0561 98 44.1001 89.956 44.1001 80.0333C44.0884 70.1155 36.0512 62.0783 26.1334 62.0667ZM26.1334 94.7333C18.0147 94.7333 11.4334 88.1518 11.4334 80.0333C11.4334 71.9146 18.0147 65.3333 26.1334 65.3333C34.2521 65.3333 40.8334 71.9146 40.8334 80.0333C40.8244 88.1481 34.2482 94.7243 26.1334 94.7333Z" fill="url(#paint4_linear)"/>
<path d="M22.1137 83.3001L23.5658 80.0334H29.4V76.7668H25.0178L27.6311 70.8966L24.6454 69.5703L21.4424 76.7668H17.9667V80.0334H19.9904L18.1072 84.2703C17.7409 85.0947 18.1123 86.0598 18.9367 86.4261C19.1456 86.5188 19.3716 86.5668 19.6 86.5668H32.6667V83.3001H22.1137Z" fill="url(#paint5_linear)"/>
<path d="M71.8666 62.0667C61.9439 62.0667 53.8999 70.1106 53.8999 80.0333C53.8999 89.956 61.9439 98 71.8666 98C81.7893 98 89.8332 89.956 89.8332 80.0333C89.8216 70.1155 81.7844 62.0783 71.8666 62.0667ZM71.8666 94.7333C63.7481 94.7333 57.1666 88.1518 57.1666 80.0333C57.1666 71.9146 63.7481 65.3333 71.8666 65.3333C79.9853 65.3333 86.5666 71.9146 86.5666 80.0333C86.5576 88.1481 79.9814 94.7243 71.8666 94.7333Z" fill="url(#paint6_linear)"/>
<path d="M17.9667 24.5C8.04396 24.5 0 32.544 0 42.4667C0.0116375 52.3845 8.04886 60.4217 17.9667 60.4333C27.8894 60.4333 35.9333 52.3894 35.9333 42.4667C35.9333 32.544 27.8894 24.5 17.9667 24.5ZM17.9667 57.1667C9.84798 57.1667 3.26667 50.5852 3.26667 42.4667C3.27565 34.3519 9.85186 27.7757 17.9667 27.7667C26.0854 27.7667 32.6667 34.348 32.6667 42.4667C32.6667 50.5852 26.0854 57.1667 17.9667 57.1667Z" fill="url(#paint7_linear)"/>
<path d="M24.1144 34.4191C23.7994 34.3401 23.4757 34.3 23.1509 34.3H11.4334V37.5667H23.1509C23.3655 37.5657 23.5684 37.6647 23.6997 37.8346C23.8332 38.0024 23.8798 38.2233 23.8255 38.4307L21.7234 46.8391C21.6456 47.1493 21.3669 47.3665 21.0472 47.3667H9.80005V50.6334H21.0488C22.8677 50.6352 24.4535 49.3965 24.892 47.6313L26.9925 39.2245C27.5248 37.1028 26.2361 34.9513 24.1144 34.4191Z" fill="url(#paint8_linear)"/>
<path d="M16.3334 40.8333H8.16675V44.0999H16.3334V40.8333Z" fill="url(#paint9_linear)"/>
<path d="M80.0334 81.6666V73.4999C80.0334 72.5979 79.302 71.8666 78.4 71.8666C78.0466 71.8666 77.7028 71.9811 77.42 72.1932L71.8667 76.3582L66.3133 72.1932C65.5916 71.652 64.5679 71.7982 64.0267 72.5199C63.8146 72.8027 63.7 73.1465 63.7 73.4999V81.6666H60.4333V84.9332H65.3334C66.2354 84.9332 66.9667 84.2019 66.9667 83.2999V76.7666L70.8867 79.7066C71.4673 80.1421 72.266 80.1421 72.8467 79.7066L76.7667 76.7666V83.2999C76.7667 84.2019 77.498 84.9332 78.4 84.9332H83.3V81.6666H80.0334Z" fill="url(#paint10_linear)"/>
<path d="M17.9666 9.80005H14.7V13.0667H17.9666V9.80005Z" fill="url(#paint11_linear)"/>
<path d="M27.7667 8.16675H24.5V11.4334H27.7667V8.16675Z" fill="url(#paint12_linear)"/>
<path d="M14.7 17.9666H11.4333V21.2332H14.7V17.9666Z" fill="url(#paint13_linear)"/>
<path d="M3.26667 66.9666H0V70.2332H3.26667V66.9666Z" fill="url(#paint14_linear)"/>
<path d="M6.53327 58.8H3.2666V62.0667H6.53327V58.8Z" fill="url(#paint15_linear)"/>
<path d="M4.89997 75.1333H1.6333V78.4H4.89997V75.1333Z" fill="url(#paint16_linear)"/>
<path d="M50.6334 94.7334H47.3667V98.0001H50.6334V94.7334Z" fill="url(#paint17_linear)"/>
<path d="M45.7332 91.4666H42.4666V94.7332H45.7332V91.4666Z" fill="url(#paint18_linear)"/>
<path d="M55.5333 91.4666H52.2666V94.7332H55.5333V91.4666Z" fill="url(#paint19_linear)"/>
<path d="M84.9334 8.16675H81.6667V11.4334H84.9334V8.16675Z" fill="url(#paint20_linear)"/>
<path d="M88.2 17.9666H84.9333V21.2332H88.2V17.9666Z" fill="url(#paint21_linear)"/>
<path d="M73.5001 6.53345H70.2334V9.80011H73.5001V6.53345Z" fill="url(#paint22_linear)"/>
<path d="M94.7332 58.8H91.4666V62.0667H94.7332V58.8Z" fill="url(#paint23_linear)"/>
<path d="M94.7332 73.5H91.4666V76.7667H94.7332V73.5Z" fill="url(#paint24_linear)"/>
<path d="M98.0001 65.3333H94.7334V68.5999H98.0001V65.3333Z" fill="url(#paint25_linear)"/>
<defs>
<linearGradient id="paint0_linear" x1="-4.00246" y1="96.5399" x2="121.053" y2="-12.535" gradientUnits="userSpaceOnUse">
<stop stop-color="#CA40FF"/>
<stop offset="1" stop-color="#40C8FF"/>
</linearGradient>
<linearGradient id="paint1_linear" x1="-4.00246" y1="96.5399" x2="121.053" y2="-12.535" gradientUnits="userSpaceOnUse">
<stop stop-color="#CA40FF"/>
<stop offset="1" stop-color="#40C8FF"/>
</linearGradient>
<linearGradient id="paint2_linear" x1="-4.00246" y1="96.5399" x2="121.053" y2="-12.535" gradientUnits="userSpaceOnUse">
<stop stop-color="#CA40FF"/>
<stop offset="1" stop-color="#40C8FF"/>
</linearGradient>
<linearGradient id="paint3_linear" x1="-4.00246" y1="96.5399" x2="121.053" y2="-12.535" gradientUnits="userSpaceOnUse">
<stop stop-color="#CA40FF"/>
<stop offset="1" stop-color="#40C8FF"/>
</linearGradient>
<linearGradient id="paint4_linear" x1="-4.00246" y1="96.5399" x2="121.053" y2="-12.535" gradientUnits="userSpaceOnUse">
<stop stop-color="#CA40FF"/>
<stop offset="1" stop-color="#40C8FF"/>
</linearGradient>
<linearGradient id="paint5_linear" x1="-4.00246" y1="96.5399" x2="121.053" y2="-12.535" gradientUnits="userSpaceOnUse">
<stop stop-color="#CA40FF"/>
<stop offset="1" stop-color="#40C8FF"/>
</linearGradient>
<linearGradient id="paint6_linear" x1="-4.00246" y1="96.5399" x2="121.053" y2="-12.535" gradientUnits="userSpaceOnUse">
<stop stop-color="#CA40FF"/>
<stop offset="1" stop-color="#40C8FF"/>
</linearGradient>
<linearGradient id="paint7_linear" x1="-4.00246" y1="96.5399" x2="121.053" y2="-12.535" gradientUnits="userSpaceOnUse">
<stop stop-color="#CA40FF"/>
<stop offset="1" stop-color="#40C8FF"/>
</linearGradient>
<linearGradient id="paint8_linear" x1="-4.00246" y1="96.5399" x2="121.053" y2="-12.535" gradientUnits="userSpaceOnUse">
<stop stop-color="#CA40FF"/>
<stop offset="1" stop-color="#40C8FF"/>
</linearGradient>
<linearGradient id="paint9_linear" x1="-4.00246" y1="96.5399" x2="121.053" y2="-12.535" gradientUnits="userSpaceOnUse">
<stop stop-color="#CA40FF"/>
<stop offset="1" stop-color="#40C8FF"/>
</linearGradient>
<linearGradient id="paint10_linear" x1="-4.00246" y1="96.5399" x2="121.053" y2="-12.535" gradientUnits="userSpaceOnUse">
<stop stop-color="#CA40FF"/>
<stop offset="1" stop-color="#40C8FF"/>
</linearGradient>
<linearGradient id="paint11_linear" x1="-4.00246" y1="96.5399" x2="121.053" y2="-12.535" gradientUnits="userSpaceOnUse">
<stop stop-color="#CA40FF"/>
<stop offset="1" stop-color="#40C8FF"/>
</linearGradient>
<linearGradient id="paint12_linear" x1="-4.00246" y1="96.5399" x2="121.053" y2="-12.535" gradientUnits="userSpaceOnUse">
<stop stop-color="#CA40FF"/>
<stop offset="1" stop-color="#40C8FF"/>
</linearGradient>
<linearGradient id="paint13_linear" x1="-4.00246" y1="96.5399" x2="121.053" y2="-12.535" gradientUnits="userSpaceOnUse">
<stop stop-color="#CA40FF"/>
<stop offset="1" stop-color="#40C8FF"/>
</linearGradient>
<linearGradient id="paint14_linear" x1="-4.00246" y1="96.5399" x2="121.053" y2="-12.535" gradientUnits="userSpaceOnUse">
<stop stop-color="#CA40FF"/>
<stop offset="1" stop-color="#40C8FF"/>
</linearGradient>
<linearGradient id="paint15_linear" x1="-4.00246" y1="96.5399" x2="121.053" y2="-12.535" gradientUnits="userSpaceOnUse">
<stop stop-color="#CA40FF"/>
<stop offset="1" stop-color="#40C8FF"/>
</linearGradient>
<linearGradient id="paint16_linear" x1="-4.00246" y1="96.5399" x2="121.053" y2="-12.535" gradientUnits="userSpaceOnUse">
<stop stop-color="#CA40FF"/>
<stop offset="1" stop-color="#40C8FF"/>
</linearGradient>
<linearGradient id="paint17_linear" x1="-4.00246" y1="96.5399" x2="121.053" y2="-12.535" gradientUnits="userSpaceOnUse">
<stop stop-color="#CA40FF"/>
<stop offset="1" stop-color="#40C8FF"/>
</linearGradient>
<linearGradient id="paint18_linear" x1="-4.00246" y1="96.5399" x2="121.053" y2="-12.535" gradientUnits="userSpaceOnUse">
<stop stop-color="#CA40FF"/>
<stop offset="1" stop-color="#40C8FF"/>
</linearGradient>
<linearGradient id="paint19_linear" x1="-4.00246" y1="96.5399" x2="121.053" y2="-12.535" gradientUnits="userSpaceOnUse">
<stop stop-color="#CA40FF"/>
<stop offset="1" stop-color="#40C8FF"/>
</linearGradient>
<linearGradient id="paint20_linear" x1="-4.00246" y1="96.5399" x2="121.053" y2="-12.535" gradientUnits="userSpaceOnUse">
<stop stop-color="#CA40FF"/>
<stop offset="1" stop-color="#40C8FF"/>
</linearGradient>
<linearGradient id="paint21_linear" x1="-4.00246" y1="96.5399" x2="121.053" y2="-12.535" gradientUnits="userSpaceOnUse">
<stop stop-color="#CA40FF"/>
<stop offset="1" stop-color="#40C8FF"/>
</linearGradient>
<linearGradient id="paint22_linear" x1="-4.00246" y1="96.5399" x2="121.053" y2="-12.535" gradientUnits="userSpaceOnUse">
<stop stop-color="#CA40FF"/>
<stop offset="1" stop-color="#40C8FF"/>
</linearGradient>
<linearGradient id="paint23_linear" x1="-4.00246" y1="96.5399" x2="121.053" y2="-12.535" gradientUnits="userSpaceOnUse">
<stop stop-color="#CA40FF"/>
<stop offset="1" stop-color="#40C8FF"/>
</linearGradient>
<linearGradient id="paint24_linear" x1="-4.00246" y1="96.5399" x2="121.053" y2="-12.535" gradientUnits="userSpaceOnUse">
<stop stop-color="#CA40FF"/>
<stop offset="1" stop-color="#40C8FF"/>
</linearGradient>
<linearGradient id="paint25_linear" x1="-4.00246" y1="96.5399" x2="121.053" y2="-12.535" gradientUnits="userSpaceOnUse">
<stop stop-color="#CA40FF"/>
<stop offset="1" stop-color="#40C8FF"/>
</linearGradient>
</defs>
</svg>
