<svg width="99" height="98" viewBox="0 0 99 98" fill="none" xmlns="http://www.w3.org/2000/svg">
<path d="M75.3375 75.1333H72.0709V81.6666H42.6709V84.9333H72.0709V89.8333C72.0709 92.5393 69.8769 94.7333 67.1709 94.7333H31.2375C29.4869 94.7309 27.8696 93.7978 26.9907 92.2833L24.1619 93.9166C25.6261 96.4392 28.321 97.9944 31.2375 98H67.1709C71.6793 97.9944 75.3319 94.3417 75.3375 89.8333V75.1333Z" fill="url(#paint0_linear)"/>
<path d="M47.5708 88.2H50.8375V91.4666H47.5708V88.2Z" fill="url(#paint1_linear)"/>
<path d="M57.3708 44.1V40.8333H52.3879C51.5736 30.4105 43.2937 22.1306 32.8708 21.3163V16.3333H29.6041V21.3163C28.5035 21.4008 27.4117 21.5715 26.3375 21.8259V13.0667H52.4708V9.8H26.3375V8.16667C26.3375 5.46066 28.5315 3.26667 31.2375 3.26667H67.1708C68.3639 3.26667 69.5163 3.70212 70.4111 4.49167L72.5724 2.04167C71.0811 0.724952 69.1598 -0.000796869 67.1708 6.56602e-07H31.2375C26.729 0.00558335 23.0764 3.65825 23.0708 8.16667V22.8667C15.716 25.9475 10.7036 32.8836 10.0871 40.8333H5.10413V44.1H10.0911C10.8615 54.5428 19.1613 62.8482 29.6041 63.625V68.6H32.8708V63.625C43.3136 62.8482 51.6135 54.5428 52.3839 44.1H57.3708ZM29.6041 57.1667V60.3584C27.3256 60.1534 25.1085 59.513 23.0708 58.473V55.5333C23.0708 51.0233 26.7275 47.3667 31.2375 47.3667C35.7475 47.3667 39.4041 51.0233 39.4041 55.5333V58.473C37.3672 59.5146 35.1493 60.1558 32.8708 60.3632V57.1667H29.6041ZM26.3375 39.2C26.3375 36.494 28.5315 34.3 31.2375 34.3C33.9435 34.3 36.1375 36.494 36.1375 39.2C36.1375 41.906 33.9435 44.1 31.2375 44.1C28.5315 44.1 26.3375 41.906 26.3375 39.2ZM43.2147 55.8603C43.0385 56.023 42.8502 56.1538 42.6708 56.3045V55.5333C42.6668 51.2666 40.287 47.3571 36.4987 45.3936C39.1226 43.1836 40.0852 39.5693 38.9089 36.3472C37.7325 33.1244 34.6676 30.9807 31.2375 30.9807C27.8073 30.9807 24.7424 33.1244 23.5661 36.3472C22.3897 39.5693 23.3523 43.1836 25.9762 45.3936C22.1879 47.3571 19.8081 51.2666 19.8041 55.5333V56.3125C19.6231 56.1642 19.4349 56.0246 19.2602 55.8683C15.8755 52.8329 13.7661 48.6283 13.3577 44.1H16.5375V40.8333H13.3537C14.1521 32.2105 20.9813 25.3813 29.6041 24.5829V27.7667H32.8708V24.5829C41.4936 25.3813 48.3229 32.2105 49.1212 40.8333H45.9375V44.1H49.1172C48.7089 48.6283 46.5994 52.8329 43.2147 55.8683V55.8603Z" fill="url(#paint2_linear)"/>
<path d="M93.3042 29.3999C94.2062 29.3999 94.9375 28.6685 94.9375 27.7665V8.16654C94.9375 7.26453 94.2062 6.5332 93.3042 6.5332H57.3709C56.4689 6.5332 55.7375 7.26453 55.7375 8.16654V27.7665C55.7375 28.6685 56.4689 29.3999 57.3709 29.3999H93.3042ZM59.0042 9.79987H91.6709V26.1332H59.0042V9.79987Z" fill="url(#paint3_linear)"/>
<path d="M62.2709 13.0667H68.8042V16.3333H62.2709V13.0667Z" fill="url(#paint4_linear)"/>
<path d="M72.0708 13.0667H88.4041V16.3333H72.0708V13.0667Z" fill="url(#paint5_linear)"/>
<path d="M62.2709 19.6001H88.4042V22.8668H62.2709V19.6001Z" fill="url(#paint6_linear)"/>
<path d="M93.0155 32.6667C91.7506 32.6691 90.5304 33.1333 89.5853 33.9731L75.3375 46.5341V32.6667H72.0709V49.0001H72.543L63.251 57.1994C57.2058 57.5456 52.478 62.5445 52.4709 68.6001V71.4815C52.4772 73.1021 51.5609 74.5863 50.1078 75.3049C49.4291 75.643 49.0726 76.4039 49.2465 77.1416C49.4203 77.8793 50.0791 78.4009 50.8375 78.4001H62.2709C68.3265 78.3929 73.3254 73.6652 73.6715 67.6199L96.9074 41.2872C98.256 39.7575 98.5838 37.5795 97.744 35.7205C96.905 33.8614 95.0548 32.6667 93.0155 32.6667ZM62.2709 75.1334H54.8012C55.4177 74.0153 55.7399 72.7584 55.7375 71.4815V68.6001C55.7431 64.3453 59.0098 60.8051 63.251 60.4597L70.4112 67.6199C70.0667 71.8612 66.5257 75.1286 62.2709 75.1334ZM94.4574 39.1267L71.9975 64.5821L66.2888 58.875L91.7442 36.4135C92.5059 35.7452 93.6551 35.7827 94.3721 36.4989C95.0883 37.2158 95.1258 38.3651 94.4574 39.1267Z" fill="url(#paint7_linear)"/>
<path d="M1.83743 89.8333H37.7708C38.6728 89.8333 39.4041 89.1019 39.4041 88.1999V75.1333C39.4041 74.2313 38.6728 73.4999 37.7708 73.4999H26.3374V65.3333H23.0708V73.4999H1.83743C0.935433 73.4999 0.204102 74.2313 0.204102 75.1333V88.1999C0.204102 89.1019 0.935433 89.8333 1.83743 89.8333ZM3.47077 76.7666H36.1374V86.5666H3.47077V76.7666Z" fill="url(#paint8_linear)"/>
<path d="M6.73755 80.0332H14.9042V83.2999H6.73755V80.0332Z" fill="url(#paint9_linear)"/>
<path d="M18.1709 80.0332H32.8709V83.2999H18.1709V80.0332Z" fill="url(#paint10_linear)"/>
<path d="M1.83743 22.8665H18.1708C19.0728 22.8665 19.8041 22.1352 19.8041 21.2332V8.16654C19.8041 7.26453 19.0728 6.5332 18.1708 6.5332H1.83743C0.935433 6.5332 0.204102 7.26453 0.204102 8.16654V21.2332C0.204102 22.1352 0.935433 22.8665 1.83743 22.8665ZM3.47077 9.79987H16.5374V19.5999H3.47077V9.79987Z" fill="url(#paint11_linear)"/>
<path d="M6.73755 13.0667H13.2709V16.3333H6.73755V13.0667Z" fill="url(#paint12_linear)"/>
<defs>
<linearGradient id="paint0_linear" x1="-3.79836" y1="96.5398" x2="121.257" y2="-12.535" gradientUnits="userSpaceOnUse">
<stop stop-color="#CA40FF"/>
<stop offset="1" stop-color="#40C8FF"/>
</linearGradient>
<linearGradient id="paint1_linear" x1="-3.79836" y1="96.5398" x2="121.257" y2="-12.535" gradientUnits="userSpaceOnUse">
<stop stop-color="#CA40FF"/>
<stop offset="1" stop-color="#40C8FF"/>
</linearGradient>
<linearGradient id="paint2_linear" x1="-3.79836" y1="96.5398" x2="121.257" y2="-12.535" gradientUnits="userSpaceOnUse">
<stop stop-color="#CA40FF"/>
<stop offset="1" stop-color="#40C8FF"/>
</linearGradient>
<linearGradient id="paint3_linear" x1="-3.79836" y1="96.5398" x2="121.257" y2="-12.535" gradientUnits="userSpaceOnUse">
<stop stop-color="#CA40FF"/>
<stop offset="1" stop-color="#40C8FF"/>
</linearGradient>
<linearGradient id="paint4_linear" x1="-3.79836" y1="96.5398" x2="121.257" y2="-12.535" gradientUnits="userSpaceOnUse">
<stop stop-color="#CA40FF"/>
<stop offset="1" stop-color="#40C8FF"/>
</linearGradient>
<linearGradient id="paint5_linear" x1="-3.79836" y1="96.5398" x2="121.257" y2="-12.535" gradientUnits="userSpaceOnUse">
<stop stop-color="#CA40FF"/>
<stop offset="1" stop-color="#40C8FF"/>
</linearGradient>
<linearGradient id="paint6_linear" x1="-3.79836" y1="96.5398" x2="121.257" y2="-12.535" gradientUnits="userSpaceOnUse">
<stop stop-color="#CA40FF"/>
<stop offset="1" stop-color="#40C8FF"/>
</linearGradient>
<linearGradient id="paint7_linear" x1="-3.79836" y1="96.5398" x2="121.257" y2="-12.535" gradientUnits="userSpaceOnUse">
<stop stop-color="#CA40FF"/>
<stop offset="1" stop-color="#40C8FF"/>
</linearGradient>
<linearGradient id="paint8_linear" x1="-3.79836" y1="96.5398" x2="121.257" y2="-12.535" gradientUnits="userSpaceOnUse">
<stop stop-color="#CA40FF"/>
<stop offset="1" stop-color="#40C8FF"/>
</linearGradient>
<linearGradient id="paint9_linear" x1="-3.79836" y1="96.5398" x2="121.257" y2="-12.535" gradientUnits="userSpaceOnUse">
<stop stop-color="#CA40FF"/>
<stop offset="1" stop-color="#40C8FF"/>
</linearGradient>
<linearGradient id="paint10_linear" x1="-3.79836" y1="96.5398" x2="121.257" y2="-12.535" gradientUnits="userSpaceOnUse">
<stop stop-color="#CA40FF"/>
<stop offset="1" stop-color="#40C8FF"/>
</linearGradient>
<linearGradient id="paint11_linear" x1="-3.79836" y1="96.5398" x2="121.257" y2="-12.535" gradientUnits="userSpaceOnUse">
<stop stop-color="#CA40FF"/>
<stop offset="1" stop-color="#40C8FF"/>
</linearGradient>
<linearGradient id="paint12_linear" x1="-3.79836" y1="96.5398" x2="121.257" y2="-12.535" gradientUnits="userSpaceOnUse">
<stop stop-color="#CA40FF"/>
<stop offset="1" stop-color="#40C8FF"/>
</linearGradient>
</defs>
</svg>
