<svg width="98" height="98" viewBox="0 0 98 98" fill="none" xmlns="http://www.w3.org/2000/svg">
<path d="M47.8404 30.569C48.1534 30.867 48.5674 31.036 48.9995 31.0425C49.1032 31.0394 49.2067 31.0285 49.3089 31.0098C49.4172 30.9941 49.5222 30.961 49.6198 30.9118C49.72 30.8791 49.8139 30.8292 49.8972 30.7643C49.9944 30.6996 50.0774 30.6344 50.1587 30.569C50.3027 30.4102 50.4187 30.2279 50.5015 30.03C50.5851 29.8338 50.6295 29.6231 50.6322 29.4098C50.6287 28.9771 50.4592 28.5621 50.1587 28.2507C50.0774 28.1854 49.9945 28.12 49.8972 28.0546C49.8139 27.9897 49.72 27.9398 49.6198 27.9071C49.5222 27.8577 49.4172 27.8248 49.3089 27.8099C48.7771 27.7108 48.2299 27.8749 47.8406 28.2507C47.7702 28.3281 47.7048 28.4098 47.6445 28.4954C47.5825 28.586 47.5331 28.6848 47.4978 28.7886C47.4507 28.8814 47.4174 28.9805 47.3988 29.0827C47.3803 29.1908 47.3696 29.3 47.3669 29.4096C47.3696 29.6229 47.414 29.8336 47.4976 30.0299C47.5804 30.2279 47.6963 30.41 47.8404 30.569Z" fill="url(#paint0_linear)"/>
<path d="M42.3054 32.2173C42.7349 32.2217 43.1477 32.0507 43.4484 31.7438C43.5236 31.6664 43.5944 31.5847 43.6604 31.4992C43.7098 31.401 43.7593 31.3197 43.8071 31.2218C43.8406 31.1236 43.8724 31.0098 43.9061 30.9116C43.9246 30.8036 43.9351 30.6943 43.938 30.5849C43.9367 30.1535 43.7599 29.7412 43.4486 29.4426C43.3788 29.3594 43.2965 29.2876 43.2047 29.2298C43.1219 29.1812 43.0245 29.1317 42.9273 29.0831C42.8284 29.0504 42.7136 29.0179 42.6164 28.985C42.081 28.8838 41.53 29.0552 41.1466 29.4426C40.6792 29.9082 40.54 30.6105 40.7942 31.2193C41.0481 31.828 41.6455 32.2225 42.3054 32.2173Z" fill="url(#paint1_linear)"/>
<path d="M56.8513 66.2554C56.7777 66.1764 56.6958 66.1055 56.6074 66.0435C56.5085 65.9941 56.4272 65.9453 56.33 65.896C56.2284 65.8615 56.1245 65.8346 56.0191 65.8147C55.8098 65.7661 55.5923 65.7661 55.383 65.8147C55.2776 65.8342 55.1737 65.8615 55.0721 65.896C54.975 65.9453 54.876 65.9941 54.7947 66.0435C54.7025 66.1012 54.6199 66.1728 54.5493 66.2554C54.3922 66.4005 54.2696 66.5789 54.1906 66.7775C54.1085 66.9801 54.0641 67.1959 54.0599 67.4144C54.062 67.8458 54.2386 68.2581 54.5493 68.5575C54.6199 68.6401 54.7027 68.7117 54.7947 68.7695C54.876 68.818 54.975 68.8676 55.0721 68.9162C55.1732 68.9564 55.277 68.9893 55.383 69.0143C55.485 69.0335 55.5885 69.0444 55.6924 69.047C55.802 69.0446 55.9112 69.0335 56.0191 69.0143C56.1249 68.9891 56.2288 68.9564 56.33 68.9162C56.4272 68.8676 56.5085 68.818 56.6074 68.7695C56.6958 68.7075 56.7777 68.6365 56.8513 68.5575C57.1584 68.2569 57.3294 67.8441 57.3248 67.4144C57.3267 67.1969 57.2885 66.9809 57.2116 66.7775C57.1255 66.5822 57.0032 66.405 56.8513 66.2554Z" fill="url(#paint2_linear)"/>
<path d="M35.7914 61.4772C35.7178 61.3982 35.6359 61.3272 35.5475 61.2653C35.4486 61.2159 35.3673 61.1671 35.2701 61.1178C35.1685 61.0833 35.0646 61.0563 34.9592 61.0364C34.7499 60.9879 34.5324 60.9879 34.3231 61.0364C34.2177 61.056 34.1138 61.0833 34.0122 61.1178C33.915 61.1671 33.8161 61.2159 33.7348 61.2653C33.6426 61.323 33.56 61.3946 33.4894 61.4772C33.3323 61.6222 33.2097 61.8007 33.1307 61.9993C33.0486 62.2019 33.0042 62.4177 33 62.6362C33.0021 63.0676 33.1787 63.4799 33.4894 63.7793C33.56 63.8619 33.6428 63.9335 33.7348 63.9912C33.8161 64.0398 33.915 64.0894 34.0122 64.138C34.1132 64.1782 34.2171 64.2111 34.3231 64.2361C34.4251 64.2552 34.5286 64.2662 34.6324 64.2688C34.7421 64.2663 34.8513 64.2552 34.9592 64.2361C35.065 64.2109 35.1689 64.1782 35.2701 64.138C35.3673 64.0894 35.4486 64.0398 35.5475 63.9912C35.6359 63.9293 35.7178 63.8583 35.7914 63.7793C36.0985 63.4787 36.2695 63.0659 36.2649 62.6362C36.2668 62.4187 36.2285 62.2027 36.1516 61.9993C36.0656 61.804 35.9433 61.6268 35.7914 61.4772Z" fill="url(#paint3_linear)"/>
<path d="M62.4999 62.6475C62.4111 62.5919 62.3185 62.5429 62.2225 62.5008C62.1218 62.4606 62.0185 62.4277 61.9131 62.4026C61.4331 62.3078 60.9359 62.4319 60.5569 62.7415C60.1779 63.0508 59.9568 63.5132 59.9537 64.0026C59.9579 64.2209 60.0021 64.4365 60.0844 64.6387C60.1632 64.8376 60.2858 65.0163 60.4431 65.1615C60.7438 65.4682 61.1567 65.6392 61.5862 65.635C61.6962 65.6404 61.8064 65.6295 61.9129 65.6023C62.0179 65.5824 62.1213 65.5551 62.2223 65.5202C62.3185 65.4726 62.4111 65.4183 62.4997 65.3576C62.589 65.3023 62.6715 65.2363 62.7451 65.1615C62.8974 65.0121 63.0191 64.8344 63.1038 64.6387C63.1811 64.4355 63.2201 64.2199 63.2186 64.0026C63.2196 63.5689 63.0495 63.1524 62.7451 62.8434C62.664 62.7784 62.5812 62.713 62.4999 62.6475Z" fill="url(#paint4_linear)"/>
<path d="M54.7947 31.9565C54.876 32.0051 54.975 32.0537 55.0721 32.1033C55.1735 32.1381 55.2774 32.1653 55.383 32.1846C55.4838 32.2116 55.5881 32.2227 55.6924 32.2173C55.8024 32.2227 55.9126 32.2118 56.0191 32.1846C56.1245 32.1651 56.2284 32.1379 56.33 32.1033C56.4272 32.0539 56.5085 32.0051 56.6074 31.9565C56.6962 31.8946 56.7779 31.8232 56.8513 31.7438C57.4827 31.1066 57.4827 30.0798 56.8513 29.4425C56.7779 29.3631 56.6962 29.2918 56.6074 29.2298C56.5183 29.1751 56.4255 29.1261 56.33 29.0831C56.2288 29.0435 56.1249 29.0106 56.0191 28.9849C55.8083 28.9522 55.5938 28.9522 55.383 28.9849C55.2772 29.0104 55.1733 29.0431 55.0721 29.0831C54.975 29.1317 54.876 29.1812 54.7947 29.2298C54.7023 29.2876 54.6195 29.3595 54.5493 29.4425C54.2365 29.7437 54.0599 30.159 54.0599 30.5933C54.0599 31.0273 54.2367 31.4429 54.5493 31.744C54.6195 31.827 54.7023 31.8988 54.7947 31.9565Z" fill="url(#paint5_linear)"/>
<path d="M89.8127 52.2651C91.615 52.263 93.0757 50.8025 93.0778 49V43.8706C96.2608 43.0543 98.3379 39.9956 97.9231 36.7358C97.5084 33.4761 94.7313 31.0354 91.4453 31.0422C88.1594 31.0354 85.3823 33.4763 84.9676 36.7358C84.5528 39.9956 86.6299 43.0541 89.8129 43.8706V49H76.7527C76.7728 41.6355 73.8455 34.5693 68.6235 29.3763C67.5971 28.3643 66.4944 27.4328 65.3249 26.5903V24.5122H88.1802C89.9826 24.5101 91.4432 23.0497 91.4453 21.2471V17.7504C94.6293 16.9283 96.7052 13.867 96.2908 10.6049C95.8765 7.34269 93.1011 4.89755 89.8127 4.89755C86.5242 4.89755 83.7491 7.34269 83.3347 10.6047C82.9203 13.8668 84.9963 16.9281 88.1802 17.7502V21.247H65.3249C63.5281 21.2494 62.0704 22.7017 62.0614 24.4985C58.5275 22.6232 54.6272 21.5406 50.6323 21.3265V17.9822H57.1623C58.9646 17.9801 60.4253 16.5195 60.4274 14.7171V12.8528C63.6114 12.0308 65.6873 8.96941 65.2729 5.70737C64.8585 2.44514 62.0832 0 58.7949 0C55.5067 0 52.7313 2.44514 52.317 5.70718C51.9026 8.96922 53.9785 12.0306 57.1625 12.8526V14.717H50.6325C48.8301 14.7191 47.3695 16.1797 47.3674 17.982V21.3265C45.1529 21.4436 42.9607 21.8257 40.8374 22.4648V9.81959C40.8353 8.01725 39.3746 6.5566 37.5723 6.55449H21.0153C20.1932 3.37051 17.1319 1.2946 13.8698 1.70898C10.6076 2.12336 8.16246 4.8987 8.16246 8.18714C8.16246 11.4756 10.6076 14.2507 13.8696 14.6651C17.1317 15.0795 20.193 13.0036 21.0151 9.81959H37.5721V23.7254C30.3116 26.9939 24.808 33.2278 22.4646 40.8374H8.18695V32.443C11.3709 31.621 13.4468 28.5596 13.0325 25.2976C12.6181 22.0353 9.84274 19.5902 6.5543 19.5902C3.26606 19.5902 0.490712 22.0353 0.0763329 25.2974C-0.338046 28.5594 1.73787 31.6208 4.92185 32.4428V40.8372C4.92395 42.6395 6.38461 44.1002 8.18695 44.1023H21.6975C21.404 45.7184 21.2533 47.3572 21.247 48.9998H17.982C16.1797 49.0019 14.7191 50.4626 14.717 52.2649V75.1202H12.8526C12.0306 71.9362 8.96922 69.8603 5.70718 70.2747C2.44514 70.6891 0 73.4644 0 76.7527C0 80.0409 2.44514 82.8163 5.70718 83.2306C8.96922 83.645 12.0306 81.5691 12.8526 78.3851H14.717C16.5193 78.383 17.9799 76.9224 17.982 75.12V52.2651H21.4564C22.5794 61.9271 28.7004 70.2866 37.5723 74.2746V89.8129H27.5453C26.7232 86.6289 23.6619 84.553 20.3998 84.9673C17.1378 85.3817 14.6927 88.1571 14.6927 91.4453C14.6927 94.7336 17.1378 97.5089 20.3998 97.9233C23.6619 98.3377 26.7232 96.2618 27.5453 93.0778H37.5723C39.3746 93.0757 40.8353 91.6152 40.8374 89.8127V75.5346C42.9607 76.1738 45.1531 76.5558 47.3674 76.6729V80.0174C47.3695 81.8197 48.8301 83.2804 50.6325 83.2825H62.06V85.1468C58.876 85.9689 56.8001 89.0302 57.2145 92.2923C57.6289 95.5543 60.4042 97.9994 63.6925 97.9994C66.9807 97.9994 69.7561 95.5543 70.1704 92.2923C70.5848 89.0302 68.5089 85.9689 65.3249 85.1468V83.2825C65.3228 81.4801 63.8622 80.0195 62.0598 80.0174H50.6323V76.6729C57.4173 76.3023 63.8254 73.4351 68.6235 68.6233C70.5638 66.6874 72.2077 64.4757 73.5019 62.0598H86.5478V78.6168C83.3638 79.4389 81.2879 82.5002 81.7023 85.7622C82.1166 89.0243 84.892 91.4694 88.1802 91.4694C91.4685 91.4694 94.2438 89.0243 94.6582 85.7622C95.0726 82.5002 92.9967 79.4389 89.8127 78.6168V62.0598C89.8106 60.2575 88.3499 58.7968 86.5476 58.7947H74.9509C75.7462 56.6913 76.2809 54.4983 76.543 52.2647L89.8127 52.2651ZM88.1802 37.5724C88.1802 35.7691 89.642 34.3073 91.4453 34.3073C93.2486 34.3073 94.7104 35.7691 94.7104 37.5724C94.7083 39.3748 93.2479 40.8354 91.4453 40.8375C89.642 40.8374 88.1802 39.3755 88.1802 37.5724ZM86.5478 11.452C86.5478 9.64875 88.0096 8.18695 89.8129 8.18695C91.6162 8.18695 93.078 9.64875 93.078 11.452C93.078 13.2553 91.6162 14.7171 89.8129 14.7171C88.0104 14.715 86.5497 13.2544 86.5478 11.452ZM55.5298 6.55449C55.5298 4.7512 56.9916 3.28939 58.7949 3.28939C60.5982 3.28939 62.06 4.7512 62.06 6.55449C62.06 8.35779 60.5982 9.81959 58.7949 9.81959C56.9926 9.81749 55.5319 8.35683 55.5298 6.55449ZM14.717 11.452C12.9137 11.452 11.4519 9.99024 11.4519 8.18695C11.4519 6.38365 12.9137 4.92185 14.717 4.92185C16.5202 4.92185 17.982 6.38365 17.982 8.18695C17.9799 9.98947 16.5193 11.4499 14.717 11.452ZM6.5543 29.4098C4.75197 29.4077 3.29131 27.947 3.2892 26.1447C3.2892 24.3414 4.75101 22.8796 6.5543 22.8796C8.3576 22.8796 9.8194 24.3414 9.8194 26.1447C9.8194 27.948 8.3576 29.4098 6.5543 29.4098ZM6.5543 80.0178C4.75101 80.0178 3.2892 78.556 3.2892 76.7527C3.2892 74.9494 4.75101 73.4876 6.5543 73.4876C8.3576 73.4876 9.8194 74.9494 9.8194 76.7527C9.8173 78.5552 8.35664 80.0157 6.5543 80.0178ZM21.247 94.7104C19.4437 94.7104 17.9819 93.2486 17.9819 91.4453C17.9819 89.642 19.4437 88.1802 21.247 88.1802C23.0503 88.1802 24.5121 89.642 24.5121 91.4453C24.51 93.2478 23.0495 94.7083 21.247 94.7104ZM63.6925 88.1804C65.4948 88.1825 66.9555 89.643 66.9576 91.4455C66.9576 93.2488 65.4958 94.7106 63.6925 94.7106C61.8892 94.7106 60.4274 93.2488 60.4274 91.4455C60.4274 89.6422 61.8892 88.1804 63.6925 88.1804ZM66.315 66.3151C58.0544 74.5752 45.1093 75.8497 35.3965 69.3595C25.6836 62.8691 21.9079 50.4216 26.3785 39.629C30.849 28.8364 42.3208 22.7049 53.7782 24.984C65.2356 27.2631 73.4874 37.3182 73.4874 49C73.5052 55.4981 70.9225 61.7331 66.315 66.3151ZM88.1802 81.6504C89.9826 81.6525 91.4432 83.1132 91.4453 84.9155C91.4453 86.7188 89.9835 88.1806 88.1802 88.1806C86.3769 88.1806 84.9151 86.7188 84.9151 84.9155C84.9151 83.1122 86.3769 81.6504 88.1802 81.6504Z" fill="url(#paint6_linear)"/>
<path d="M34 43.2891H36.1719V54.7812H34V43.2891Z" fill="url(#paint7_linear)"/>
<path d="M50.8032 45.3125L49.272 46.7734C48.2303 45.6745 47.0584 45.125 45.7564 45.125C44.6574 45.125 43.7303 45.5 42.9751 46.25C42.2251 47 41.8501 47.9245 41.8501 49.0234C41.8501 49.7891 42.0168 50.4688 42.3501 51.0625C42.6834 51.6562 43.1548 52.1224 43.7642 52.4609C44.3735 52.7995 45.0506 52.9688 45.7954 52.9688C46.4308 52.9688 47.0116 52.8516 47.5376 52.6172C48.0636 52.3776 48.6418 51.9453 49.272 51.3203L50.7564 52.8672C49.9074 53.6953 49.1053 54.2708 48.3501 54.5938C47.5949 54.9115 46.7329 55.0703 45.7642 55.0703C43.9777 55.0703 42.5142 54.5052 41.3735 53.375C40.2381 52.2396 39.6704 50.7865 39.6704 49.0156C39.6704 47.8698 39.9282 46.8516 40.4439 45.9609C40.9647 45.0703 41.7069 44.3542 42.6704 43.8125C43.6392 43.2708 44.6808 43 45.7954 43C46.7433 43 47.6548 43.2005 48.5298 43.6016C49.41 44.0026 50.1678 44.5729 50.8032 45.3125Z" fill="url(#paint8_linear)"/>
<path d="M59.7547 43C61.3797 43 62.7755 43.5885 63.9422 44.7656C65.1141 45.9427 65.7 47.3776 65.7 49.0703C65.7 50.7474 65.1219 52.1667 63.9656 53.3281C62.8146 54.4896 61.4161 55.0703 59.7703 55.0703C58.0464 55.0703 56.6141 54.474 55.4734 53.2812C54.3328 52.0885 53.7625 50.6719 53.7625 49.0312C53.7625 47.9323 54.0281 46.9219 54.5594 46C55.0906 45.0781 55.8198 44.349 56.7469 43.8125C57.6792 43.2708 58.6818 43 59.7547 43ZM59.7313 45.1406C58.6688 45.1406 57.7755 45.5104 57.0516 46.25C56.3276 46.9896 55.9656 47.9297 55.9656 49.0703C55.9656 50.3411 56.4214 51.3463 57.3328 52.0859C58.0411 52.6641 58.8536 52.9531 59.7703 52.9531C60.8068 52.9531 61.6896 52.5781 62.4188 51.8281C63.1479 51.0781 63.5125 50.1537 63.5125 49.0547C63.5125 47.9609 63.1453 47.0365 62.4109 46.2812C61.6766 45.5208 60.7833 45.1406 59.7313 45.1406Z" fill="url(#paint9_linear)"/>
<path d="M34 43.2891V42.7891H33.5V43.2891L34 43.2891ZM36.1719 43.2891L36.6719 43.2891V42.7891H36.1719V43.2891ZM36.1719 54.7812V55.2812H36.6719V54.7812L36.1719 54.7812ZM34 54.7812L33.5 54.7812V55.2812H34V54.7812ZM50.8032 45.3125L51.1483 45.6743L51.4917 45.3466L51.1824 44.9867L50.8032 45.3125ZM49.272 46.7734L48.909 47.1174L49.2541 47.4815L49.617 47.1352L49.272 46.7734ZM42.9751 46.25L42.6227 45.8952L42.6215 45.8965L42.9751 46.25ZM47.5376 52.6172L47.741 53.0739L47.7447 53.0722L47.5376 52.6172ZM49.272 51.3203L49.6326 50.9741L49.2807 50.6074L48.9198 50.9653L49.272 51.3203ZM50.7564 52.8672L51.1054 53.2251L51.4604 52.8788L51.117 52.521L50.7564 52.8672ZM48.3501 54.5938L48.5439 55.0546L48.5466 55.0535L48.3501 54.5938ZM41.3735 53.375L41.0199 53.7286L41.0215 53.7302L41.3735 53.375ZM40.4439 45.9609L40.0121 45.7085L40.011 45.7104L40.4439 45.9609ZM42.6704 43.8125L42.4263 43.3761L42.4253 43.3767L42.6704 43.8125ZM48.5298 43.6016L48.3214 44.0561L48.3224 44.0566L48.5298 43.6016ZM63.9422 44.7656L63.5871 45.1176L63.5879 45.1184L63.9422 44.7656ZM63.9656 53.3281L63.6113 52.9754L63.6105 52.9762L63.9656 53.3281ZM57.3328 52.0859L57.649 51.6986L57.6479 51.6977L57.3328 52.0859ZM62.4109 46.2812L62.0513 46.6286L62.0525 46.6298L62.4109 46.2812ZM34 43.7891H36.1719V42.7891H34V43.7891ZM35.6719 43.2891V54.7812H36.6719V43.2891H35.6719ZM36.1719 54.2812H34V55.2812H36.1719V54.2812ZM34.5 54.7812V43.2891H33.5V54.7812H34.5ZM50.458 44.9507L48.9267 46.4117L49.617 47.1352L51.1483 45.6743L50.458 44.9507ZM49.6348 46.4295C48.5154 45.2486 47.2182 44.625 45.7563 44.625V45.625C46.8985 45.625 47.945 46.1004 48.909 47.1174L49.6348 46.4295ZM45.7563 44.625C44.5301 44.625 43.4749 45.0489 42.6227 45.8952L43.3273 46.6048C43.9855 45.9511 44.7845 45.625 45.7563 45.625V44.625ZM42.6215 45.8965C41.774 46.7439 41.35 47.7972 41.35 49.0234H42.35C42.35 48.0517 42.676 47.2561 43.3286 46.6035L42.6215 45.8965ZM41.35 49.0234C41.35 49.8639 41.5337 50.6298 41.914 51.3073L42.786 50.8177C42.4996 50.3077 42.35 49.7142 42.35 49.0234H41.35ZM41.914 51.3073C42.2938 51.9838 42.8329 52.5156 43.5212 52.898L44.0069 52.0239C43.4764 51.7292 43.0729 51.3287 42.786 50.8177L41.914 51.3073ZM43.5212 52.898C44.21 53.2806 44.9715 53.4688 45.7953 53.4688V52.4688C45.1295 52.4688 44.5369 52.3183 44.0069 52.0239L43.5212 52.898ZM45.7953 53.4688C46.4935 53.4688 47.1446 53.3396 47.741 53.0739L47.334 52.1605C46.8784 52.3635 46.3679 52.4688 45.7953 52.4688V53.4688ZM47.7447 53.0722C48.3454 52.7986 48.9718 52.3221 49.624 51.6753L48.9198 50.9653C48.3115 51.5686 47.7817 51.9566 47.3303 52.1622L47.7447 53.0722ZM48.9111 51.6665L50.3955 53.2134L51.117 52.521L49.6326 50.9741L48.9111 51.6665ZM50.4071 52.5093C49.5844 53.3118 48.8327 53.8436 48.1534 54.134L48.5466 55.0535C49.3777 54.6981 50.2302 54.0788 51.1054 53.2251L50.4071 52.5093ZM48.1561 54.1329C47.4724 54.4205 46.6782 54.5703 45.7641 54.5703V55.5703C46.7875 55.5703 47.7172 55.4024 48.5439 55.0546L48.1561 54.1329ZM45.7641 54.5703C44.0932 54.5703 42.7614 54.0464 41.7254 53.0198L41.0215 53.7302C42.2667 54.964 43.862 55.5703 45.7641 55.5703V54.5703ZM41.727 53.0214C40.6954 51.9899 40.1703 50.6688 40.1703 49.0156H39.1703C39.1703 50.9041 39.7806 52.4893 41.0199 53.7286L41.727 53.0214ZM40.1703 49.0156C40.1703 47.9476 40.4098 47.0176 40.8765 46.2115L40.011 45.7104C39.4465 46.6856 39.1703 47.792 39.1703 49.0156H40.1703ZM40.8754 46.2133C41.3482 45.4048 42.0235 44.7497 42.9153 44.2483L42.4253 43.3767C41.3901 43.9586 40.581 44.7358 40.0121 45.7085L40.8754 46.2133ZM42.9143 44.2489C43.8082 43.7491 44.7658 43.5 45.7953 43.5V42.5C44.5957 42.5 43.4699 42.7925 42.4263 43.3761L42.9143 44.2489ZM45.7953 43.5C46.6702 43.5 47.5107 43.6845 48.3214 44.0561L48.738 43.147C47.7987 42.7165 46.8163 42.5 45.7953 42.5V43.5ZM48.3224 44.0566C49.136 44.4273 49.8353 44.9533 50.4239 45.6383L51.1824 44.9867C50.5001 44.1925 49.6838 43.5779 48.737 43.1466L48.3224 44.0566ZM59.7547 43.5C61.2434 43.5 62.5122 44.0331 63.5871 45.1176L64.2973 44.4137C63.0388 43.144 61.516 42.5 59.7547 42.5V43.5ZM63.5879 45.1184C64.6645 46.1998 65.2 47.507 65.2 49.0703H66.2C66.2 47.2482 65.5637 45.6856 64.2965 44.4129L63.5879 45.1184ZM65.2 49.0703C65.2 50.6186 64.6718 51.91 63.6113 52.9754L64.32 53.6809C65.5719 52.4233 66.2 50.8762 66.2 49.0703H65.2ZM63.6105 52.9762C62.554 54.0422 61.2837 54.5703 59.7703 54.5703V55.5703C61.5486 55.5703 63.0751 54.937 64.3208 53.6801L63.6105 52.9762ZM59.7703 54.5703C58.176 54.5703 56.8765 54.0249 55.8348 52.9357L55.1121 53.6268C56.3517 54.923 57.9167 55.5703 59.7703 55.5703V54.5703ZM55.8348 52.9357C54.7826 51.8354 54.2625 50.5423 54.2625 49.0312H53.2625C53.2625 50.8015 53.8831 52.3417 55.1121 53.6268L55.8348 52.9357ZM54.2625 49.0312C54.2625 48.0169 54.5066 47.093 54.9926 46.2496L54.1262 45.7504C53.5497 46.7507 53.2625 47.8477 53.2625 49.0312H54.2625ZM54.9926 46.2496C55.4797 45.4043 56.1456 44.7381 56.9973 44.2453L56.4965 43.3797C55.494 43.9598 54.7015 44.7519 54.1262 45.7504L54.9926 46.2496ZM56.9973 44.2453C57.8537 43.7477 58.7705 43.5 59.7547 43.5V42.5C58.5931 42.5 57.5047 42.794 56.4965 43.3797L56.9973 44.2453ZM59.7313 44.6406C58.5383 44.6406 57.515 45.0617 56.6943 45.9002L57.4089 46.5998C58.036 45.9591 58.7992 45.6406 59.7313 45.6406V44.6406ZM56.6943 45.9002C55.8691 46.7432 55.4656 47.8135 55.4656 49.0703H56.4656C56.4656 48.0458 56.7861 47.236 57.4089 46.5998L56.6943 45.9002ZM55.4656 49.0703C55.4656 50.4776 55.9787 51.6311 57.0178 52.4742L57.6479 51.6977C56.864 51.0617 56.4656 50.2047 56.4656 49.0703H55.4656ZM57.0167 52.4733C57.8145 53.1245 58.7388 53.4531 59.7703 53.4531V52.4531C58.9685 52.4531 58.2678 52.2036 57.649 51.6986L57.0167 52.4733ZM59.7703 53.4531C60.9432 53.4531 61.9549 53.0225 62.7773 52.1767L62.0603 51.4796C61.4242 52.1338 60.6703 52.4531 59.7703 52.4531V53.4531ZM62.7773 52.1767C63.6021 51.3282 64.0125 50.2765 64.0125 49.0547H63.0125C63.0125 50.0308 62.6937 50.828 62.0603 51.4796L62.7773 52.1767ZM64.0125 49.0547C64.0125 47.8363 63.5983 46.7851 62.7694 45.9327L62.0525 46.6298C62.6923 47.2878 63.0125 48.0856 63.0125 49.0547H64.0125ZM62.7706 45.9339C61.9425 45.0765 60.9197 44.6406 59.7313 44.6406V45.6406C60.647 45.6406 61.4106 45.9652 62.0513 46.6286L62.7706 45.9339Z" fill="url(#paint10_linear)"/>
<defs>
<linearGradient id="paint0_linear" x1="-4.00147" y1="96.5393" x2="121.049" y2="-12.5049" gradientUnits="userSpaceOnUse">
<stop stop-color="#CA40FF"/>
<stop offset="1" stop-color="#40C8FF"/>
</linearGradient>
<linearGradient id="paint1_linear" x1="-4.00147" y1="96.5393" x2="121.049" y2="-12.5049" gradientUnits="userSpaceOnUse">
<stop stop-color="#CA40FF"/>
<stop offset="1" stop-color="#40C8FF"/>
</linearGradient>
<linearGradient id="paint2_linear" x1="-4.00147" y1="96.5393" x2="121.049" y2="-12.5049" gradientUnits="userSpaceOnUse">
<stop stop-color="#CA40FF"/>
<stop offset="1" stop-color="#40C8FF"/>
</linearGradient>
<linearGradient id="paint3_linear" x1="-4.00147" y1="96.5393" x2="121.049" y2="-12.5049" gradientUnits="userSpaceOnUse">
<stop stop-color="#CA40FF"/>
<stop offset="1" stop-color="#40C8FF"/>
</linearGradient>
<linearGradient id="paint4_linear" x1="-4.00147" y1="96.5393" x2="121.049" y2="-12.5049" gradientUnits="userSpaceOnUse">
<stop stop-color="#CA40FF"/>
<stop offset="1" stop-color="#40C8FF"/>
</linearGradient>
<linearGradient id="paint5_linear" x1="-4.00147" y1="96.5393" x2="121.049" y2="-12.5049" gradientUnits="userSpaceOnUse">
<stop stop-color="#CA40FF"/>
<stop offset="1" stop-color="#40C8FF"/>
</linearGradient>
<linearGradient id="paint6_linear" x1="-4.00147" y1="96.5393" x2="121.049" y2="-12.5049" gradientUnits="userSpaceOnUse">
<stop stop-color="#CA40FF"/>
<stop offset="1" stop-color="#40C8FF"/>
</linearGradient>
<linearGradient id="paint7_linear" x1="-4.00147" y1="96.5393" x2="121.049" y2="-12.5049" gradientUnits="userSpaceOnUse">
<stop stop-color="#CA40FF"/>
<stop offset="1" stop-color="#40C8FF"/>
</linearGradient>
<linearGradient id="paint8_linear" x1="-4.00147" y1="96.5393" x2="121.049" y2="-12.5049" gradientUnits="userSpaceOnUse">
<stop stop-color="#CA40FF"/>
<stop offset="1" stop-color="#40C8FF"/>
</linearGradient>
<linearGradient id="paint9_linear" x1="-4.00147" y1="96.5393" x2="121.049" y2="-12.5049" gradientUnits="userSpaceOnUse">
<stop stop-color="#CA40FF"/>
<stop offset="1" stop-color="#40C8FF"/>
</linearGradient>
<linearGradient id="paint10_linear" x1="-4.00147" y1="96.5393" x2="121.049" y2="-12.5049" gradientUnits="userSpaceOnUse">
<stop stop-color="#CA40FF"/>
<stop offset="1" stop-color="#40C8FF"/>
</linearGradient>
</defs>
</svg>
