<svg width="101" height="101" viewBox="0 0 101 101" fill="none" xmlns="http://www.w3.org/2000/svg">
<path d="M56.6639 48.5768L56.2348 47.557C56.2348 47.557 57.2332 45.3042 57.145 45.2176L55.8229 43.9269C55.7316 43.838 53.4779 44.8664 53.4779 44.8664L52.4385 44.4467C52.4385 44.4467 51.5204 42.1631 51.3944 42.1631H49.5289C49.399 42.1631 48.5494 44.4514 48.5494 44.4514L47.5115 44.8727C47.5115 44.8727 45.2106 43.8947 45.1224 43.9821L43.8027 45.2743C43.7113 45.3632 44.7618 47.5704 44.7618 47.5704L44.3326 48.5886C44.3326 48.5886 42.0002 49.487 42.0002 49.6083V51.4367C42.0002 51.5643 44.3381 52.3966 44.3381 52.3966L44.7673 53.4132C44.7673 53.4132 43.7688 55.6645 43.8562 55.7511L45.1776 57.0449C45.2673 57.1323 47.5218 56.1039 47.5218 56.1039L48.562 56.5252C48.562 56.5252 49.4801 58.8072 49.6069 58.8072H51.4723C51.6015 58.8072 52.4519 56.5189 52.4519 56.5189L53.4929 56.0976C53.4929 56.0976 55.7891 57.0756 55.8781 56.9898L57.1994 55.6976C57.2915 55.607 56.2387 53.4014 56.2387 53.4014L56.6671 52.3832C56.6671 52.3832 59.0002 51.4832 59.0002 51.3604V49.5335C59.001 49.4067 56.6639 48.5768 56.6639 48.5768ZM53.226 50.4847C53.226 51.9549 52.0031 53.1518 50.5006 53.1518C48.9998 53.1518 47.7753 51.9549 47.7753 50.4847C47.7753 49.0146 48.9998 47.8193 50.5006 47.8193C52.0039 47.82 53.226 49.0146 53.226 50.4847Z" fill="url(#paint0_linear)"/>
<path d="M100.871 52.5602C100.36 49.9808 98.3917 47.9365 95.8333 47.329V47.3273L94.6419 34.2153C97.7329 32.1502 98.5646 27.9702 96.4994 24.8792C95.2525 23.0129 93.1575 21.8909 90.9129 21.8875C89.7487 21.8947 88.6067 22.2075 87.6013 22.7945L55.4425 8.05723C56.1835 4.42397 53.8388 0.877789 50.2054 0.136749C46.5721 -0.604291 43.0259 1.74062 42.2849 5.37388C42.2344 5.62145 42.1978 5.87197 42.1755 6.12375L17.5132 14.8286C16.3601 13.954 14.9537 13.4784 13.5065 13.474C9.78913 13.4837 6.78354 16.5053 6.79321 20.2227C6.7991 22.4786 7.93475 24.5816 9.81795 25.8237L5.75243 55.647C2.08257 56.1788 -0.461324 59.5846 0.0702135 63.2545C0.601751 66.9244 4.00784 69.4683 7.67771 68.9367C7.79129 68.9203 7.90467 68.901 8.01741 68.8787L15.4316 86.1824C12.8261 88.8234 12.8551 93.0768 15.4962 95.6821C18.1372 98.2876 22.3906 98.2586 24.9959 95.6175C25.355 95.2536 25.6711 94.85 25.9387 94.4144L43.966 95.7017C44.7611 99.3206 48.3394 101.61 51.9584 100.815C54.8895 100.171 57.0365 97.6589 57.2159 94.6634L81.3078 88.3245C82.6792 91.7798 86.5921 93.4689 90.0472 92.0976C93.5023 90.7264 95.1915 86.8134 93.8203 83.3583C93.1451 81.657 91.8061 80.3041 90.1119 79.6112L95.5859 60.4548C99.2253 59.734 101.592 56.1996 100.871 52.5602ZM90.9129 25.2532C92.7717 25.2532 94.2784 26.7599 94.2784 28.6187C94.2784 30.4775 92.7717 31.9842 90.9129 31.9842C89.0541 31.9842 87.5474 30.4775 87.5474 28.6187C87.5474 26.7599 89.0543 25.2532 90.9129 25.2532ZM38.9936 38.2659L31.1032 32.1273L37.4792 23.8128L48.417 24.8224L49.1019 33.7326C45.3157 34.0529 41.751 35.6516 38.9936 38.2659ZM50.5272 37.0325C57.962 37.0325 63.9892 43.0596 63.9892 50.4944C63.9892 57.9292 57.962 63.9564 50.5272 63.9564C43.0958 63.948 37.0736 57.9259 37.0652 50.4944C37.0652 43.0594 43.0922 37.0325 50.5272 37.0325ZM36.7857 40.8153C34.7952 43.6179 33.7176 46.9661 33.6995 50.4036L11.7127 57.7303C11.669 57.6831 11.6353 57.6293 11.5916 57.5839L29.0585 34.8011L36.7857 40.8153ZM13.3166 60.7457L34.0363 53.8465C34.6052 56.6367 35.8759 59.2359 37.7282 61.3986L27.6603 74.8219L13.2123 64.1348C13.3986 63.5317 13.4979 62.9049 13.5067 62.2737C13.5019 61.7588 13.4382 61.2459 13.3166 60.7457ZM40.1733 63.741C46.4221 68.6603 55.2692 68.5055 61.3422 63.3708L64.2904 66.1356L35.4313 80.5651L30.3628 76.8193L40.1733 63.741ZM63.6896 60.9494C65.7161 58.4128 66.9609 55.3416 67.2722 52.1099L74.991 52.7258L67.7266 64.4124L67.5044 64.5252L63.6896 60.9494ZM78.7637 53.0303L87.5577 53.7337C87.5577 53.7775 87.5443 53.8179 87.5443 53.8616C87.5477 54.0686 87.5914 54.2672 87.6099 54.4708L73.4748 61.5383L78.7637 53.0303ZM80.7729 49.818L89.8311 35.2471C90.1885 35.31 90.5503 35.3442 90.9131 35.3497C91.0663 35.3497 91.2093 35.3144 91.3608 35.3043L92.468 47.41C90.8147 47.878 89.4035 48.9619 88.5253 50.4389L80.7729 49.818ZM86.7263 33.847L76.9916 49.51L67.2602 48.7309C67.0465 46.7261 66.4706 44.7767 65.5607 42.9776L85.444 32.5126C85.8077 33.0145 86.2393 33.4636 86.7263 33.847ZM84.2543 29.3356H84.256L63.7534 40.127C60.9912 36.595 56.9322 34.3134 52.479 33.7898L51.8059 25.1455L84.2173 28.161C84.2055 28.3141 84.1702 28.4622 84.1702 28.6187C84.1855 28.8589 84.2135 29.0983 84.2543 29.3356ZM53.943 11.0761L83.7562 24.7349L51.5568 21.7397L50.8837 13.1206C52.0747 12.7386 53.1346 12.0302 53.943 11.0761ZM48.8445 3.37751C50.7033 3.37751 52.2099 4.8842 52.2099 6.74301C52.2099 8.60181 50.7033 10.1085 48.8445 10.1085C46.9856 10.1085 45.479 8.60181 45.479 6.74301C45.479 4.8842 46.9856 3.37751 48.8445 3.37751ZM45.935 12.7891C46.4423 13.0415 46.9802 13.2271 47.5353 13.3411L47.5269 13.3478L48.1478 21.425L39.9023 20.6576L45.935 12.7891ZM42.7192 9.50103C42.8961 9.89395 43.1107 10.2688 43.3604 10.6201L35.9395 20.2942L20.0812 18.8201C19.9948 18.4116 19.8703 18.0122 19.7094 17.627L42.7192 9.50103ZM19.9012 22.1772L33.5213 23.4443L28.4495 30.0693L19.531 23.138C19.6786 22.8275 19.8023 22.5064 19.9012 22.1772ZM13.5067 16.8395C15.3655 16.8395 16.8722 18.3462 16.8722 20.205C16.8722 22.0638 15.3655 23.5705 13.5067 23.5705C11.6479 23.5705 10.1412 22.0638 10.1412 20.205C10.1412 18.3462 11.6479 16.8395 13.5067 16.8395ZM13.069 26.8872C13.2171 26.9006 13.3568 26.936 13.5065 26.936C14.8876 26.9349 16.2345 26.5058 17.3617 25.7076L26.4014 32.7381L9.21385 55.1573L13.069 26.8872ZM6.77575 65.6392C4.91695 65.6392 3.41026 64.1325 3.41026 62.2737C3.41026 60.4149 4.91695 58.9082 6.77575 58.9082C8.63456 58.9082 10.1412 60.4149 10.1412 62.2737C10.1412 64.1325 8.63435 65.6392 6.77575 65.6392ZM11.0548 67.4262C11.2045 67.3017 11.3661 67.1923 11.5041 67.0544L25.6391 77.5042L20.6264 84.1881C20.4935 84.1881 20.369 84.1494 20.2344 84.1494C19.5943 84.1584 18.9588 84.2605 18.348 84.4523L11.0548 67.4262ZM20.2377 94.2459C18.3789 94.2459 16.8722 92.7392 16.8722 90.8804C16.8722 89.0216 18.3789 87.5149 20.2377 87.5149C22.0965 87.5149 23.6032 89.0216 23.6032 90.8804C23.6032 92.7392 22.0963 94.2459 20.2377 94.2459ZM24.7321 85.9146C24.5018 85.6954 24.2561 85.4929 23.9968 85.3088L28.3484 79.505L32.0504 82.2462L24.7321 85.9146ZM44.1109 92.336L26.9469 91.1109C26.9469 91.0301 26.9704 90.9561 26.9704 90.8753C26.9609 90.149 26.8318 89.4292 26.5884 88.745L35.0947 84.4859L44.4474 91.3987C44.312 91.7022 44.1996 92.0156 44.1109 92.336ZM50.5272 97.6114C48.6684 97.6114 47.1617 96.1047 47.1617 94.2459C47.1617 92.3871 48.6684 90.8804 50.5272 90.8804C52.386 90.8804 53.8927 92.3871 53.8927 94.2459C53.8927 96.1047 52.3858 97.6114 50.5272 97.6114ZM53.0513 88.0197C50.9079 87.135 48.4578 87.4347 46.5913 88.8106V88.814L38.4703 82.8032L64.3257 69.873L53.0513 88.0197ZM80.9056 84.9554L80.9023 84.9622L56.5849 91.3549C56.3592 90.8909 56.0809 90.4544 55.7553 90.0542L68.2985 69.878L81.747 82.4868C81.3059 83.2458 81.0199 84.0848 80.9056 84.9554ZM90.9129 85.8321C90.9129 87.6909 89.4062 89.1976 87.5474 89.1976C85.6886 89.1976 84.1819 87.6909 84.1819 85.8321C84.1819 83.9733 85.6886 82.4666 87.5474 82.4666C89.4062 82.4666 90.9129 83.9733 90.9129 85.8321ZM86.7364 79.1903C85.8043 79.2985 84.9057 79.6024 84.0995 80.0822L70.1209 66.9854L88.7388 57.6764C89.5718 58.8726 90.7705 59.766 92.1548 60.2224L86.7364 79.1903ZM94.2784 57.2254C92.4196 57.2254 90.9129 55.7187 90.9129 53.8599C90.9129 52.0011 92.4196 50.4944 94.2784 50.4944C96.1372 50.4944 97.6439 52.0011 97.6439 53.8599C97.6439 55.7185 96.1372 57.2254 94.2784 57.2254Z" fill="url(#paint1_linear)"/>
<defs>
<linearGradient id="paint0_linear" x1="-4.12499" y1="99.4681" x2="124.729" y2="-12.9501" gradientUnits="userSpaceOnUse">
<stop stop-color="#CA40FF"/>
<stop offset="1" stop-color="#40C8FF"/>
</linearGradient>
<linearGradient id="paint1_linear" x1="-4.12499" y1="99.4681" x2="124.729" y2="-12.9501" gradientUnits="userSpaceOnUse">
<stop stop-color="#CA40FF"/>
<stop offset="1" stop-color="#40C8FF"/>
</linearGradient>
</defs>
</svg>
